<?xml version="1.0" encoding="utf-8"?>
<!-- Generator: Adobe Illustrator 18.1.1, SVG Export Plug-In . SVG Version: 6.00 Build 0)  -->
<svg version="1.1" id="Layer_1" xmlns="http://www.w3.org/2000/svg" xmlns:xlink="http://www.w3.org/1999/xlink" x="0px" y="0px"
	 viewBox="0 0 1152 1152" enable-background="new 0 0 1152 1152" xml:space="preserve">
<g>
	<path fill="#FFFFFF" d="M968.4,302.8H816.5L725.6,211c0,0-0.5-0.5-0.7-0.5l-0.5-0.5c-13.5-13.5-31.7-22-52.4-22h-189
		c-22,0-41.6,9.5-55.4,24.5v0.2l-88.9,90H183.6c-41.8,0-75.6,32.9-75.6,74.7v454.7c0,41.8,33.8,75.8,75.6,75.8h784.8
		c41.6,0,75.6-34,75.6-75.8V377.5C1044,335.6,1010,302.8,968.4,302.8z M576,794.4c-114.5,0-207.9-93.6-207.9-208.3
		c0-115,93.4-208.3,207.9-208.3c114.8,0,207.9,93.4,207.9,208.3C783.9,700.8,690.8,794.4,576,794.4z M954.2,423.1
		c-17.3,0-31.5-14.2-31.5-31.7c0-17.5,14.2-31.7,31.5-31.7c17.3,0,31.5,14.2,31.5,31.7C985.7,409,971.5,423.1,954.2,423.1z"/>
	<path fill="#FFFFFF" d="M576,428.5c-86.9,0-157.1,70.4-157.1,157.5c0,86.8,70.2,157.5,157.1,157.5c86.6,0,157-70.4,157-157.5
		S662.6,428.5,576,428.5z"/>
</g>
</svg>
