<?xml version="1.0" encoding="utf-8"?>
<!-- Generator: Adobe Illustrator 18.1.1, SVG Export Plug-In . SVG Version: 6.00 Build 0)  -->
<svg version="1.1" id="Guides" xmlns="http://www.w3.org/2000/svg" xmlns:xlink="http://www.w3.org/1999/xlink" x="0px" y="0px"
	 viewBox="0 0 1152 1152" enable-background="new 0 0 1152 1152" xml:space="preserve">
<polyline fill="#36A17E" points="-64.5,1097.2 -1.1,1045.2 62.2,1097.1 126,1044.8 190.6,1097.8 255.3,1044.8 319.9,1097.8 
	384.3,1045 448.7,1097.8 513,1045.1 577.6,1098.1 641.9,1045.5 706.4,1098.4 771,1045.4 834.1,1097.2 897.6,1045.2 960.4,1096.7 
	1024,1044.5 1087.8,1096.7 1151.4,1044.6 1214.8,1096.6 1278.6,1044.3 1341,1095.6 "/>
<polyline fill="#45332F" points="1275.8,1102.5 1213.3,1153.7 1149.5,1101.5 1086.1,1153.5 1022.6,1101.4 958.8,1153.6 
	895.1,1101.4 832.3,1152.9 768.9,1100.9 705.7,1152.6 641.2,1099.7 576.7,1152.6 512.4,1100 447.7,1153 383.5,1100.3 319.1,1153.1 
	254.7,1100.3 190,1153.3 125.4,1100.3 60.7,1153.3 -3.1,1101 -66.4,1152.9 -129.8,1100.9 "/>
<path fill="#36A17E" d="M235.5,844"/>
<path fill="#36A17E" d="M926,844"/>
<polyline fill="#36A17E" points="1340,1087.2 1277.6,1138.5 1213.8,1086.2 1150.4,1138.2 1086.8,1086.1 1023,1138.3 959.4,1086.1 
	896.6,1137.6 833.1,1085.6 770,1137.4 705.4,1084.4 640.9,1137.3 576.6,1084.7 512,1137.7 447.7,1085 383.3,1137.8 318.9,1085 
	254.3,1138 189.6,1085 125,1138 61.2,1085.7 -2.1,1137.6 -65.5,1085.6 "/>
<polyline fill="#E08651" points="-129.8,1081.2 -66.4,1029.2 -3.1,1081.1 60.7,1028.8 125.4,1081.8 190,1028.8 254.7,1081.8 
	319.1,1029 383.5,1081.8 447.7,1029.1 512.4,1082.1 576.7,1029.5 641.2,1082.4 705.7,1029.5 768.9,1081.2 832.3,1029.2 
	895.1,1080.7 958.8,1028.5 1022.6,1080.7 1086.1,1028.6 1149.5,1080.6 1213.3,1028.4 1275.8,1079.6 "/>
<polyline fill="#E08651" points="1624.8,242.5 1688.2,190.5 1751.5,242.4 1815.3,190.1 1880,243.1 1944.6,190.1 2009.3,243.1 
	2073.7,190.3 2138.1,243.1 2202.3,190.4 2267,241.9 2331.3,190.8 2395.8,243.7 2460.3,190.7 2523.5,242.5 2586.9,190.5 2649.7,242 
	2713.4,189.8 2777.2,242 2840.7,189.9 2904.1,241.9 2967.9,189.6 3030.4,240.9 "/>
<polyline fill="none" stroke="#36A17E" stroke-width="14" stroke-miterlimit="10" points="1623.1,280.5 1686.5,228.5 1749.8,280.4 
	1813.6,228.1 1878.3,281.1 1942.9,228.1 2007.6,281.1 2071.9,228.3 2136.3,281.1 2200.6,228.4 2265.3,281.4 2329.5,228.8 
	2394.1,281.7 2458.6,228.7 2521.8,280.5 2585.2,228.5 2648,280 2711.7,227.8 2775.5,280 2839,227.9 2902.4,279.9 2966.2,227.6 
	3028.7,278.9 "/>
<polyline fill="none" stroke="#45332F" stroke-width="20" stroke-miterlimit="10" points="1623.4,301.7 1686.8,249.7 1750.1,301.6 
	1813.9,249.3 1878.5,302.3 1943.2,249.3 2007.8,302.3 2072.2,249.5 2136.6,302.3 2200.9,249.6 2265.5,302.6 2329.8,250 
	2394.3,302.9 2458.8,250 2522,301.7 2585.4,249.7 2648.2,301.2 2711.9,249 2775.7,301.2 2839.2,249.1 2902.7,301.1 2966.5,248.9 
	3028.9,300.1 "/>
</svg>
