<?xml version="1.0" encoding="utf-8"?>
<!-- Generator: Adobe Illustrator 18.1.1, SVG Export Plug-In . SVG Version: 6.00 Build 0)  -->
<svg version="1.1" id="Guides" xmlns="http://www.w3.org/2000/svg" xmlns:xlink="http://www.w3.org/1999/xlink" x="0px" y="0px"
	 viewBox="0 874 1152 278" enable-background="new 0 874 1152 278" xml:space="preserve">
<path fill="#8CA461 " d="M767.3,1008.7"/>
<g>
	<path fill="#8CA461 " d="M1118.4,1111.2"/>
	<path fill="#8CA461 " d="M1152,1151.7c-0.1-3-0.4-46.2-7-46.2c-4.8,0-15.6,43.3-16.4,46.2C1135.6,1151.7,1145.2,1152.4,1152,1151.7z
		"/>
	<path fill="#8CA461 " d="M1108.8,1113.3c0.4-1.3-6.4,17.4-4.9,17.5C1111,1131.6,1111.3,1114.7,1108.8,1113.3z"/>
	<path fill="#8CA461 " d="M1152,1152c-1.2-6.5-24.8-76.2-28.9-76.2c6.4,6.1-26.7,76.2-0.9,76.2C1130.8,1152,1131.6,1152,1152,1152z"
		/>
	<path fill="#8CA461 " d="M59,1152c227.6,0,455.2,0,682.8,0c-7.4-25.3-28.9-50.3-28.5-75.6c0.1-7.8,12-62.4,3.8-62.4
		c1.5,0-13.7,46-15.4,50.1c0.1,0.1-3.6-16.2-6.7-16.2c3.1,0-8.1,69.8-8.4,76.1c-0.5-8-1.2-98.2-5.4-98.2c-3.6,0-11.5,79-12,85.9
		c-2.1-36.8-6-73.3-12.2-109.9c-17.9,15-25.5,51.3-27,70c-0.6-4.2-5.6-79.4-12.1-79.4c-7.9,0-21.2,92.5-22.4,102.1
		c-0.2-2.4-19.6-50.4-21.2-50.4c-3.9,0-3.9,75-4.1,78.3c-0.7-6.2-23.4-92.2-32.4-92.2c-6.6,0-6.6,74.1-7.1,80.2c0-8.3-27.4-95-32-95
		c-6.5,0-13.3,117.4-13.6,123.7c0,0.1-0.2-66.4-10.9-66.4c-5.7,0-12.3,47.3-13,54.4c-0.1-13.1-12.2-32.9-9.4-44.4
		c-2.7,12.5-14.7,23.7-16.8,36.3c-0.2-2.6,0.8-32.9-1.7-32.9c-2.2,0-4.7,24-4.9,26.1c-0.4-4.4-6-47.7-8.3-47.7
		c-3.2,0-1.9,67.2-2.4,73.4c-1.2-8.5-2.5-102-10.6-102c-5.2,0-17.5,50.5-18.1,53.8c-0.6-5.6,2.2-74.3-3.4-74.3
		c-7.4,0-27.1,101.6-27.7,109c-0.5-7.2-7.4-83.8-10.8-83.8c-3.2,0-2.6,70-3.1,76.5c-3.6-28.9-30.2-56.7-32.4-85.1
		c-0.5-6.3,13.3-67.4,4.6-67.4c1.5,0-13.7,46-15.4,50.1c0.1,0.1-3.6-16.2-6.7-16.2c3.1,0-8.1,69.8-8.4,76.1
		c-0.5-8-1.2-98.2-5.4-98.2c-3.6,0-11.5,79-12,85.9c-0.7-12.1-26.1-179.4-37.5-179.4c-7.8,0-0.9,129-1.7,139.4
		c-0.6-4.2-5.6-79.4-12.1-79.4c-7.9,0-21.2,92.5-22.4,102.1c-0.6-7.2-8.7-92.3-12.2-92.3c-4.6,0-8.1,109.9-8.4,117.6
		c-0.6-5.9-0.4-92.8-9.5-92.8c-3.9,0-21.7,41.9-22.3,45.3c-0.5-6.8-22.9-83.7-26.9-83.7c-6.2,0-5.7,118.6-6,124.9
		c-0.6-13.1-40.5-161.9-56.3-161.9C35.3,901.9,59.6,1132.6,59,1152z M710.1,1125.4c-0.2-4-0.2-7.8-0.2-11.3
		C710.5,1118,710.7,1121.8,710.1,1125.4z M309.2,1075.9c-0.2-4-0.2-7.8-0.2-11.3C309.6,1068.5,309.7,1072.3,309.2,1075.9z"/>
	<path fill="#8CA461 " d="M815.9,1152c-0.2-5.7-0.2-66.7-7.8-66.7c-5.2,0-17.5,50.5-18.1,53.8c-0.6-5.6,2.2-74.3-3.4-74.3
		c-3.9,0-23.4,79.9-24.7,87.1C779.8,1152,797.8,1152,815.9,1152z"/>
	<path fill="#8CA461 " d="M1122.2,1152c-9.7-22.1-22.9-41.6-19.1-64.3c0.7-4,8.2-53.2,2-53.2c1.5,0-13.7,46-15.4,50.1
		c0.1,0.1-3.6-16.2-6.7-16.2c3.1,0-8.1,69.8-8.4,76.1c-0.6-10.1,0.3-121.9-4-121.9c-4.1,0-12.7,100.9-13.3,109.6
		c-0.2-3.8,5.9-98.6-7.3-99.8c13.8,6.7-33.5,61.3-32,59.8c-0.6-4.2-5.6-79.4-12.1-79.4c-7.9,0-21.2,92.5-22.4,102.1
		c-0.6-7.8-27.6-103.6-21.8-103.6c-3.8,0-10.1,24.9-10.7,26.3c0-3.8,0.2-7.4-3.3-11.1c2.6,4.4-16,62.7-16.6,66.2
		c-0.5-6.8-22.9-83.7-26.9-83.7c-6.2,0-5.7,118.6-6,124.9c-0.3-4.8-29.8-92.2-43.1-92.2c5.1,0,1.2,86.5,0.1,95.6
		c0.8-2.6-0.8-4.4-4.8-5.4c-1.8,6.8-5.1,13.5-10.1,19.9C934.4,1152,1028.3,1152,1122.2,1152z M1098.2,1145.9
		c-0.2-4-0.2-7.8-0.2-11.3C1098.6,1138.5,1098.7,1142.3,1098.2,1145.9z M962,1115.2c1,7.7,1.5,16,1,25.1
		C962.2,1131.7,961.9,1123.4,962,1115.2z"/>
	<path fill="#8CA461 " d="M767,1151c-1.5-5.6-18.7-72.2-20.1-72.2C749,1078.8,743,1150.5,767,1151z"/>
	<path fill="#8CA461 " d="M816.1,1151c0.3-2.2,6.3-38.1,4.2-38.2C820.6,1112.8,797.9,1148.7,816.1,1151z"/>
	<path fill="#8CA461 " d="M914.7,1152c-0.2-5.7-0.2-66.7-7.8-66.7c-5.2,0-17.5,50.5-18.1,53.8c-0.6-5.6,2.2-74.3-3.4-74.3
		c-3.9,0-23.4,79.9-24.7,87.1C878.6,1152,896.6,1152,914.7,1152z"/>
	<path fill="#8CA461 " d="M865.7,1149c-1.5-5.6-18.7-72.2-20.1-72.2C847.7,1076.8,841.8,1148.5,865.7,1149z"/>
	<path fill="#8CA461 " d="M61,1151.3c-0.2-5.7-0.2-66.7-7.8-66.7c-5.2,0-17.5,50.5-18.1,53.8c-0.6-5.6,2.2-74.3-3.4-74.3
		c-3.9,0-23.4,79.9-24.7,87.1C24.9,1151.3,42.9,1151.3,61,1151.3z"/>
	<path fill="#8CA461 " d="M26.9,1149.1c-1.5-5.6-18.7-72.2-20.1-72.2C8.9,1076.9,3,1148.6,26.9,1149.1z"/>
	<path fill="#8CA461 " d="M720.8,1151.7c0.1-5.1,0.1-59.1,4.6-59.1c3.1,0,10.4,44.8,10.8,47.7c0.4-5-1.3-65.7,2-65.7
		c2.3,0,13.8,70.8,14.6,77.2C742.2,1151.7,731.5,1151.7,720.8,1151.7z"/>
	<path fill="#8CA461 " d="M749.9,1152c0.9-5,11.1-64,11.9-64C760.5,1088,764,1151.5,749.9,1152z"/>
	<path fill="#8CA461 " d="M890.7,1152c-0.2-5.7-0.2-66.7-7.8-66.7c-5.2,0-17.5,50.5-18.1,53.8c-0.6-5.6,2.2-74.3-3.4-74.3
		c-3.9,0-23.4,79.9-24.7,87.1C854.6,1152,872.7,1152,890.7,1152z"/>
	<path fill="#8CA461 " d="M841.8,1152c-1.5-5.6-18.7-72.2-20.1-72.2C823.7,1079.8,817.8,1151.5,841.8,1152z"/>
	<path fill="#8CA461 " d="M319,1097.7c0.9-5,11.1-64,11.9-64C329.6,1033.8,333.2,1097.3,319,1097.7z"/>
	<path fill="#8CA461 " d="M517.3,1120.1c0.9-8.4,11.1-108.6,11.9-108.6C527.9,1011.5,531.5,1119.4,517.3,1120.1z"/>
	<path fill="#8CA461 " d="M134,1033.8c0.9-5,11.1-64,11.9-64C144.6,969.8,148.2,1033.3,134,1033.8z"/>
	<path fill="#8CA461 " d="M445.5,1131.5c0.9-5,11.1-64,11.9-64C456.1,1067.5,459.6,1131.1,445.5,1131.5z"/>
</g>
<path fill="#8CA461 " d="M89,1064.9c3.3-9.1,42.4-118,45.6-118C129.7,946.8,143.2,1064,89,1064.9z"/>
</svg>
