<?xml version="1.0" encoding="utf-8"?>
<!-- Generator: Adobe Illustrator 18.1.1, SVG Export Plug-In . SVG Version: 6.00 Build 0)  -->
<svg version="1.1" id="Guides" xmlns="http://www.w3.org/2000/svg" xmlns:xlink="http://www.w3.org/1999/xlink" x="0px" y="0px"
	 viewBox="0 850.8 3293.1 301.2" enable-background="new 0 850.8 3293.1 301.2" xml:space="preserve">
<path fill="#8CA461 " d="M685.6,1008.7"/>
<g>
	<path fill="#8CA461 " d="M999,1111.2"/>
	<path fill="#8CA461 " d="M1029,1151.7c-0.1-3-0.4-46.2-6.2-46.2c-4.3,0-13.9,43.3-14.6,46.2
		C1014.3,1151.7,1022.9,1152.4,1029,1151.7z"/>
	<path fill="#8CA461 " d="M990.4,1113.3c0.4-1.3-5.7,17.4-4.4,17.5C992.4,1131.6,992.7,1114.7,990.4,1113.3z"/>
	<path fill="#8CA461 " d="M1029,1152c-1.1-6.5-22.1-76.2-25.8-76.2c5.7,6.1-23.8,76.2-0.8,76.2C1010.1,1152,1010.8,1152,1029,1152z"
		/>
	<path fill="#8CA461 " d="M53.4,1152c203.2,0,406.3,0,609.5,0c-6.6-25.3-25.8-50.3-25.4-75.6c0.1-7.8,10.7-62.4,3.4-62.4
		c1.3,0-12.2,46-13.7,50.1c0.1,0.1-3.2-16.2-6-16.2c2.8,0-7.2,69.8-7.5,76.1c-0.4-8-1.1-98.2-4.8-98.2c-3.2,0-10.3,79-10.7,85.9
		c-1.9-36.8-5.4-73.3-10.9-109.9c-16,15-22.8,51.3-24.1,70c-0.5-4.2-5-79.4-10.8-79.4c-7.1,0-18.9,92.5-20,102.1
		c-0.2-2.4-17.5-50.4-18.9-50.4c-3.5,0-3.5,75-3.7,78.3c-0.6-6.2-20.9-92.2-28.9-92.2c-5.9,0-5.9,74.1-6.3,80.2
		c0-8.3-24.5-95-28.6-95c-5.8,0-11.9,117.4-12.1,123.7c0,0.1-0.2-66.4-9.7-66.4c-5.1,0-11,47.3-11.6,54.4
		c-0.1-13.1-10.9-32.9-8.4-44.4c-2.4,12.5-13.1,23.7-15,36.3c-0.2-2.6,0.7-32.9-1.5-32.9c-2,0-4.2,24-4.4,26.1
		c-0.4-4.4-5.4-47.7-7.4-47.7c-2.9,0-1.7,67.2-2.1,73.4c-1.1-8.5-2.2-102-9.5-102c-4.6,0-15.6,50.5-16.2,53.8
		c-0.5-5.6,2-74.3-3-74.3c-6.6,0-24.2,101.6-24.7,109c-0.4-7.2-6.6-83.8-9.6-83.8c-2.9,0-2.3,70-2.8,76.5
		c-3.2-28.9-27-56.7-28.9-85.1c-0.4-6.3,11.9-67.4,4.1-67.4c1.3,0-12.2,46-13.7,50.1c0.1,0.1-3.2-16.2-6-16.2
		c2.8,0-7.2,69.8-7.5,76.1c-0.4-8-1.1-98.2-4.8-98.2c-3.2,0-10.3,79-10.7,85.9c-0.6-12.1-23.3-179.4-33.5-179.4
		c-7,0-0.8,129-1.5,139.4c-0.5-4.2-5-79.4-10.8-79.4c-7.1,0-18.9,92.5-20,102.1c-0.5-7.2-7.8-92.3-10.9-92.3
		c-4.1,0-7.2,109.9-7.5,117.6c-0.5-5.9-0.4-92.8-8.5-92.8c-3.5,0-19.4,41.9-19.9,45.3c-0.4-6.8-20.4-83.7-24-83.7
		c-5.5,0-5.1,118.6-5.4,124.9c-0.5-13.1-36.1-161.9-50.3-161.9C32.2,901.9,53.9,1132.6,53.4,1152z M634.6,1125.4
		c-0.2-4-0.2-7.8-0.2-11.3C634.9,1118,635.1,1121.8,634.6,1125.4z M276.7,1075.9c-0.2-4-0.2-7.8-0.2-11.3
		C277.1,1068.5,277.2,1072.3,276.7,1075.9z"/>
	<path fill="#8CA461 " d="M729,1152c-0.2-5.7-0.2-66.7-7-66.7c-4.6,0-15.6,50.5-16.2,53.8c-0.5-5.6,2-74.3-3-74.3
		c-3.5,0-20.9,79.9-22,87.1C696.8,1152,712.8,1152,729,1152z"/>
	<path fill="#8CA461 " d="M1002.4,1152c-8.7-22.1-20.4-41.6-17-64.3c0.6-4,7.3-53.2,1.8-53.2c1.3,0-12.2,46-13.7,50.1
		c0.1,0.1-3.2-16.2-6-16.2c2.8,0-7.2,69.8-7.5,76.1c-0.5-10.1,0.3-121.9-3.6-121.9c-3.7,0-11.3,100.9-11.9,109.6
		c-0.2-3.8,5.3-98.6-6.5-99.8c12.3,6.7-29.9,61.3-28.6,59.8c-0.5-4.2-5-79.4-10.8-79.4c-7.1,0-18.9,92.5-20,102.1
		c-0.5-7.8-24.6-103.6-19.5-103.6c-3.4,0-9,24.9-9.6,26.3c0-3.8,0.2-7.4-2.9-11.1c2.3,4.4-14.3,62.7-14.8,66.2
		c-0.4-6.8-20.4-83.7-24-83.7c-5.5,0-5.1,118.6-5.4,124.9c-0.3-4.8-26.6-92.2-38.5-92.2c4.6,0,1.1,86.5,0.1,95.6
		c0.7-2.6-0.7-4.4-4.3-5.4c-1.6,6.8-4.6,13.5-9,19.9C834.8,1152,918.6,1152,1002.4,1152z M981,1145.9c-0.2-4-0.2-7.8-0.2-11.3
		C981.3,1138.5,981.4,1142.3,981,1145.9z M859.4,1115.2c0.9,7.7,1.3,16,0.9,25.1C859.6,1131.7,859.3,1123.4,859.4,1115.2z"/>
	<path fill="#8CA461 " d="M685.3,1151c-1.3-5.6-16.7-72.2-17.9-72.2C669.3,1078.8,663.9,1150.5,685.3,1151z"/>
	<path fill="#8CA461 " d="M729.2,1151c0.3-2.2,5.6-38.1,3.7-38.2C733.2,1112.8,712.9,1148.7,729.2,1151z"/>
	<path fill="#8CA461 " d="M817.2,1152c-0.2-5.7-0.2-66.7-7-66.7c-4.6,0-15.6,50.5-16.2,53.8c-0.5-5.6,2-74.3-3-74.3
		c-3.5,0-20.9,79.9-22,87.1C785,1152,801,1152,817.2,1152z"/>
	<path fill="#8CA461 " d="M773.4,1149c-1.3-5.6-16.7-72.2-17.9-72.2C757.4,1076.8,752.1,1148.5,773.4,1149z"/>
	<path fill="#8CA461 " d="M55.2,1151.3c-0.2-5.7-0.2-66.7-7-66.7c-4.6,0-15.6,50.5-16.2,53.8c-0.5-5.6,2-74.3-3-74.3
		c-3.5,0-20.9,79.9-22,87.1C23,1151.3,39,1151.3,55.2,1151.3z"/>
	<path fill="#8CA461 " d="M24.7,1149.1c-1.3-5.6-16.7-72.2-17.9-72.2C8.7,1076.9,3.4,1148.6,24.7,1149.1z"/>
	<path fill="#8CA461 " d="M644.1,1151.7c0.1-5.1,0.1-59.1,4.1-59.1c2.8,0,9.3,44.8,9.6,47.7c0.4-5-1.2-65.7,1.8-65.7
		c2.1,0,12.3,70.8,13,77.2C663.2,1151.7,653.7,1151.7,644.1,1151.7z"/>
	<path fill="#8CA461 " d="M670.1,1152c0.8-5,9.9-64,10.6-64C679.5,1088,682.7,1151.5,670.1,1152z"/>
	<path fill="#8CA461 " d="M795.8,1152c-0.2-5.7-0.2-66.7-7-66.7c-4.6,0-15.6,50.5-16.2,53.8c-0.5-5.6,2-74.3-3-74.3
		c-3.5,0-20.9,79.9-22,87.1C763.5,1152,779.7,1152,795.8,1152z"/>
	<path fill="#8CA461 " d="M752.1,1152c-1.3-5.6-16.7-72.2-17.9-72.2C736,1079.8,730.7,1151.5,752.1,1152z"/>
	<path fill="#8CA461 " d="M285.5,1097.7c0.8-5,9.9-64,10.6-64C294.9,1033.8,298.1,1097.3,285.5,1097.7z"/>
	<path fill="#8CA461 " d="M462.5,1120.1c0.8-8.4,9.9-108.6,10.6-108.6C471.9,1011.5,475.1,1119.4,462.5,1120.1z"/>
	<path fill="#8CA461 " d="M120.3,1033.8c0.8-5,9.9-64,10.6-64C129.8,969.8,133,1033.3,120.3,1033.8z"/>
	<path fill="#8CA461 " d="M398.4,1131.5c0.8-5,9.9-64,10.6-64C407.8,1067.5,411,1131.1,398.4,1131.5z"/>
	<path fill="#8CA461 " d="M1102.1,1151.3c0.1-5.1,0.1-59.1,4.1-59.1c2.8,0,9.3,44.8,9.6,47.7c0.4-5-1.2-65.7,1.8-65.7
		c2.1,0,12.3,70.8,13,77.2C1121.2,1151.3,1111.7,1151.3,1102.1,1151.3z"/>
	<path fill="#8CA461 " d="M1763.4,1152c-8.7-22.1-20.4-41.6-17-64.3c0.6-4,7.3-53.2,1.8-53.2c1.3,0-12.2,46-13.7,50.1
		c0.1,0.1-3.2-16.2-6-16.2c2.8,0-7.2,69.8-7.5,76.1c-0.5-10.1,0.3-121.9-3.6-121.9c-3.7,0-11.3,100.9-11.9,109.6
		c-0.2-3.8,5.3-98.6-6.5-99.8c12.3,6.7-29.9,61.3-28.6,59.8c-0.5-4.2-5-79.4-10.8-79.4c-7.1,0-18.9,92.5-20,102.1
		c-0.5-7.8-24.6-103.6-19.5-103.6c-3.4,0-9,24.9-9.6,26.3c0-3.8,0.2-7.4-2.9-11.1c2.3,4.4-14.3,62.7-14.8,66.2
		c-0.4-6.8-20.4-83.7-24-83.7c-5.5,0-5.1,118.6-5.4,124.9c-0.3-4.8-26.6-92.2-38.5-92.2c4.6,0,1.1,86.5,0.1,95.6
		c0.7-2.6-0.7-4.4-4.3-5.4c-1.6,6.8-4.6,13.5-9,19.9C1595.8,1152,1679.6,1152,1763.4,1152z M1742,1145.9c-0.2-4-0.2-7.8-0.2-11.3
		C1742.3,1138.5,1742.4,1142.3,1742,1145.9z M1620.4,1115.2c0.9,7.7,1.3,16,0.9,25.1C1620.6,1131.7,1620.3,1123.4,1620.4,1115.2z"/>
	<path fill="#8CA461 " d="M1315.5,1147.3c-1.3-5.6-16.7-72.2-17.9-72.2C1299.4,1075.1,1294.1,1146.8,1315.5,1147.3z"/>
	<path fill="#8CA461 " d="M1354.8,1152c-0.2-5.7-0.2-66.7-7-66.7c-4.6,0-15.6,50.5-16.2,53.8c-0.5-5.6,2-74.3-3-74.3
		c-3.5,0-20.9,79.9-22,87.1C1322.5,1152,1338.7,1152,1354.8,1152z"/>
	<path fill="#8CA461 " d="M1601.4,1152c203.2,0,406.3,0,609.5,0c-6.6-25.3-25.8-50.3-25.4-75.6c0.1-7.8,10.7-62.4,3.4-62.4
		c1.3,0-12.2,46-13.7,50.1c0.1,0.1-3.2-16.2-6-16.2c2.8,0-7.2,69.8-7.5,76.1c-0.4-8-1.1-98.2-4.8-98.2c-3.2,0-10.3,79-10.7,85.9
		c-1.9-36.8-5.4-73.3-10.9-109.9c-16,15-22.8,51.3-24.1,70c-0.5-4.2-5-79.4-10.8-79.4c-7.1,0-18.9,92.5-20,102.1
		c-0.2-2.4-17.5-50.4-18.9-50.4c-3.5,0-3.5,75-3.7,78.3c-0.6-6.2-20.9-92.2-28.9-92.2c-5.9,0-5.9,74.1-6.3,80.2
		c0-8.3-24.5-95-28.6-95c-5.8,0-11.9,117.4-12.1,123.7c0,0.1-0.2-66.4-9.7-66.4c-5.1,0-11,47.3-11.6,54.4
		c-0.1-13.1-10.9-32.9-8.4-44.4c-2.4,12.5-13.1,23.7-15,36.3c-0.2-2.6,0.7-32.9-1.5-32.9c-2,0-4.2,24-4.4,26.1
		c-0.4-4.4-5.4-47.7-7.4-47.7c-2.9,0-1.7,67.2-2.1,73.4c-1.1-8.5-2.2-102-9.5-102c-4.6,0-15.6,50.5-16.2,53.8
		c-0.5-5.6,2-74.3-3-74.3c-6.6,0-24.2,101.6-24.7,109c-0.4-7.2-6.6-83.8-9.6-83.8c-2.9,0-2.3,70-2.8,76.5
		c-3.2-28.9-27-56.7-28.9-85.1c-0.4-6.3,11.9-67.4,4.1-67.4c1.3,0-12.2,46-13.7,50.1c0.1,0.1-3.2-16.2-6-16.2
		c2.8,0-7.2,69.8-7.5,76.1c-0.4-8-1.1-98.2-4.8-98.2c-3.2,0-10.3,79-10.7,85.9c-0.6-12.1,1.3-193.4-1.5-183.6
		c-16.8,57.3-32.7,133.2-33.4,143.6c-0.5-4.2-13.8-127.4-13.9-121.6c-0.7,47.3-15.8,134.7-16.9,144.3c-0.5-7.2-7.8-92.3-10.9-92.3
		c-4.1,0-7.2,109.9-7.5,117.6c-0.5-5.9-0.4-92.8-8.5-92.8c-3.5,0-19.4,41.9-19.9,45.3c-0.4-6.8-20.4-83.7-24-83.7
		c-5.5,0-5.1,118.6-5.4,124.9c-0.5-13.1-27.6-105.3-30.6-121.2C1599.9,942.6,1601.9,1132.6,1601.4,1152z M2182.6,1125.4
		c-0.2-4-0.2-7.8-0.2-11.3C2182.9,1118,2183.1,1121.8,2182.6,1125.4z M1824.7,1075.9c-0.2-4-0.2-7.8-0.2-11.3
		C1825.1,1068.5,1825.2,1072.3,1824.7,1075.9z"/>
</g>
<path fill="#8CA461 " d="M80.2,1064.9c2.9-9.1,37.8-118,40.7-118C116.5,946.8,128.5,1064,80.2,1064.9z"/>
<path fill="#8CA461 " d="M2659.6,1008.7"/>
<g>
	<path fill="#8CA461 " d="M2367.1,1111.2"/>
	<path fill="#8CA461 " d="M2358.6,1151.7c-0.7-2.9-9.7-46.2-13.7-46.2c-5.5,0-5.7,43.2-5.8,46.2
		C2344.8,1152.4,2352.8,1151.7,2358.6,1151.7z"/>
	<path fill="#8CA461 " d="M2379.2,1130.8c1.2-0.1-4.4-18.8-4.1-17.5C2373,1114.7,2373.3,1131.6,2379.2,1130.8z"/>
	<path fill="#8CA461 " d="M2363.9,1152c21.5,0-6.1-70.1-0.7-76.2c-3.4,0-23.1,69.7-24.1,76.2C2356.1,1152,2356.8,1152,2363.9,1152z"
		/>
	<path fill="#8CA461 " d="M3254.6,902.1c-13.2,0-46.4,148.8-46.9,161.9c-0.2-6.3,0.2-124.9-5-124.9c-3.3,0-22,76.9-22.4,83.7
		c-0.5-3.4-15.3-45.3-18.6-45.3c-7.6,0-7.4,86.9-7.9,92.8c-0.2-7.7-3.2-117.6-7-117.6c-2.9,0-9.7,85.1-10.2,92.3
		c-1-9.6-12.1-102.1-18.7-102.1c-5.4,0-9.6,75.2-10.1,79.4c-0.7-10.4,5.1-139.4-1.4-139.4c-9.5,0-30.7,167.3-31.2,179.4
		c-0.4-6.9-7-85.9-10-85.9c-3.5,0-4.1,90.2-4.5,98.2c-0.2-6.3-9.6-76.1-7-76.1c-2.6,0-5.7,16.3-5.6,16.2
		c-1.4-4.1-14.1-50.1-12.8-50.1c-7.2,0,4.2,61.1,3.8,67.4c-1.8,28.4-24,56.2-27,85.1c-0.4-6.5,0.1-76.5-2.6-76.5
		c-2.8,0-8.6,76.6-9,83.8c-0.5-7.4-16.9-109-23.1-109c-4.7,0-2.3,68.7-2.8,74.3c-0.5-3.3-10.7-53.8-15.1-53.8
		c-6.7,0-7.8,93.5-8.8,102c-0.4-6.2,0.7-73.4-2-73.4c-1.9,0-6.6,43.3-6.9,47.7c-0.2-2.1-2.2-26.1-4.1-26.1c-2.1,0-1.2,30.3-1.4,32.9
		c-1.7-12.6-11.7-23.8-14-36.3c2.3,11.5-7.7,31.3-7.8,44.4c-0.6-7.1-6.1-54.4-10.8-54.4c-8.9,0-9.1,66.5-9.1,66.4
		c-0.2-6.3-5.9-123.7-11.3-123.7c-3.8,0-26.7,86.7-26.7,95c-0.4-6.1-0.4-80.2-5.9-80.2c-7.5,0-26.4,86-27,92.2
		c-0.2-3.3-0.2-78.3-3.4-78.3c-1.3,0-17.5,48-17.7,50.4c-1-9.6-12.1-102.1-18.7-102.1c-5.4,0-9.6,75.2-10.1,79.4
		c-1.2-18.7-7.6-55-22.5-70c-5.2,36.6-8.4,73.1-10.2,109.9c-0.4-6.9-7-85.9-10-85.9c-3.5,0-4.1,90.2-4.5,98.2
		c-0.2-6.3-9.6-76.1-7-76.1c-2.6,0-5.7,16.3-5.6,16.2c-1.4-4.1-14.1-50.1-12.8-50.1c-6.8,0,3.1,54.6,3.2,62.4
		c0.3,25.3-17.6,50.3-23.7,75.6c189.6,0,379.2,0,568.8,0C3249.1,1132.6,3269.3,901.9,3254.6,902.1z M2707.4,1114.1
		c0,3.5,0,7.3-0.2,11.3C2706.7,1121.8,2706.9,1118,2707.4,1114.1z M3041.3,1064.6c0,3.5,0,7.3-0.2,11.3
		C3040.8,1072.3,3040.8,1068.5,3041.3,1064.6z"/>
	<path fill="#8CA461 " d="M2664.1,1151.9c-1.1-7.2-17.3-87.1-20.6-87.1c-4.7,0-2.3,68.7-2.8,74.3c-0.5-3.3-10.7-53.8-15.1-53.8
		c-6.3,0-6.3,61-6.5,66.7C2634.2,1152,2649.2,1152,2664.1,1151.9z"/>
	<path fill="#8CA461 " d="M2598.8,1151.8c-4.2-6.4-6.9-13.1-8.4-19.9c-3.3,1-4.7,2.8-4,5.4c-0.9-9.1-4.2-95.6,0.1-95.6
		c-11.1,0-35.7,87.4-35.9,92.2c-0.2-6.3,0.2-124.9-5-124.9c-3.3,0-22,76.9-22.4,83.7c-0.5-3.5-16-61.8-13.8-66.2
		c-2.9,3.7-2.7,7.3-2.7,11.1c-0.5-1.4-5.7-26.3-8.9-26.3c4.8,0-17.7,95.8-18.2,103.6c-1-9.6-12.1-102.1-18.7-102.1
		c-5.4,0-9.6,75.2-10.1,79.4c1.2,1.5-38.2-53.1-26.7-59.8c-11,1.2-5.9,96-6.1,99.8c-0.5-8.7-7.7-109.6-11.1-109.6
		c-3.6,0-2.8,111.8-3.3,121.9c-0.2-6.3-9.6-76.1-7-76.1c-2.6,0-5.7,16.3-5.6,16.2c-1.4-4.1-14.1-50.1-12.8-50.1
		c-5.2,0,1.1,49.2,1.7,53.2c3.2,22.7-7.8,42.2-15.9,64.3C2442.2,1152,2520.4,1152,2598.8,1151.8z M2384.1,1134.6
		c0,3.5,0,7.3-0.2,11.3C2383.5,1142.3,2383.6,1138.5,2384.1,1134.6z M2496.5,1140.3c-0.4-9.1,0-17.4,0.8-25.1
		C2497.5,1123.4,2497.2,1131.7,2496.5,1140.3z"/>
	<path fill="#8CA461 " d="M2676.6,1078.8c-1.2,0-15.5,66.6-16.7,72.2C2679.8,1150.5,2674.8,1078.8,2676.6,1078.8z"/>
	<path fill="#8CA461 " d="M2615.4,1112.8c-1.7,0.1,3.2,36,3.5,38.2C2634.1,1148.7,2615.2,1112.8,2615.4,1112.8z"/>
	<path fill="#8CA461 " d="M2581.8,1151.9c-1.1-7.2-17.3-87.1-20.6-87.1c-4.7,0-2.3,68.7-2.8,74.3c-0.5-3.3-10.7-53.8-15.1-53.8
		c-6.3,0-6.3,61-6.5,66.7C2551.9,1152,2566.9,1152,2581.8,1151.9z"/>
	<path fill="#8CA461 " d="M2594.3,1076.8c-1.2,0-15.5,66.6-16.7,72.2C2597.5,1148.5,2592.6,1076.8,2594.3,1076.8z"/>
	<path fill="#8CA461 " d="M3292.9,1151.2c-1.1-7.2-17.3-87.1-20.6-87.1c-4.7,0-2.3,68.7-2.8,74.3c-0.5-3.3-10.7-53.8-15.1-53.8
		c-6.3,0-6.3,61-6.5,66.7C3263,1151.3,3278,1151.3,3292.9,1151.2z"/>
	<path fill="#8CA461 " d="M3293.1,1076.9c-1.2,0-15.5,66.6-16.7,72.2C3296.3,1148.6,3291.3,1076.9,3293.1,1076.9z"/>
	<path fill="#8CA461 " d="M2671.7,1151.8c0.7-6.4,10.2-77.2,12.2-77.2c2.7,0,1.3,60.7,1.7,65.7c0.3-2.9,6.4-47.7,9-47.7
		c3.7,0,3.7,54,3.8,59.1C2689.4,1151.7,2680.5,1151.7,2671.7,1151.8z"/>
	<path fill="#8CA461 " d="M2664.2,1088c0.7,0,9.2,59,9.9,64C2662.3,1151.5,2665.2,1088,2664.2,1088z"/>
	<path fill="#8CA461 " d="M2601.8,1151.9c-1.1-7.2-17.3-87.1-20.6-87.1c-4.7,0-2.3,68.7-2.8,74.3c-0.5-3.3-10.7-53.8-15.1-53.8
		c-6.3,0-6.3,61-6.5,66.7C2571.8,1152,2586.8,1152,2601.8,1151.9z"/>
	<path fill="#8CA461 " d="M2614.3,1079.8c-1.2,0-15.5,66.6-16.7,72.2C2617.5,1151.5,2612.6,1079.8,2614.3,1079.8z"/>
	<path fill="#8CA461 " d="M3023.1,1033.7c0.7,0,9.2,59,9.9,64C3021.2,1097.3,3024.2,1033.8,3023.1,1033.7z"/>
	<path fill="#8CA461 " d="M2857.9,1011.5c0.7,0,9.2,100.2,9.9,108.6C2856,1119.4,2859,1011.5,2857.9,1011.5z"/>
	<path fill="#8CA461 " d="M3177.2,969.8c0.7,0,9.2,59,9.9,64C3175.3,1033.3,3178.3,969.8,3177.2,969.8z"/>
	<path fill="#8CA461 " d="M2917.7,1067.5c0.7,0,9.2,59,9.9,64C2915.9,1131.1,2918.8,1067.5,2917.7,1067.5z"/>
</g>
<path fill="#8CA461 " d="M3186.6,946.9c2.7,0,35.2,108.9,38,118C3179.5,1064,3190.7,946.8,3186.6,946.9z"/>
</svg>
