<?xml version="1.0" encoding="utf-8"?>
<!-- Generator: Adobe Illustrator 18.1.1, SVG Export Plug-In . SVG Version: 6.00 Build 0)  -->
<svg version="1.1" id="Layer_1" xmlns="http://www.w3.org/2000/svg" xmlns:xlink="http://www.w3.org/1999/xlink" x="0px" y="0px"
	 viewBox="-335 337 480 480" enable-background="new -335 337 480 480" xml:space="preserve">
<g id="home">
	<path fill="#FFFFFF" d="M65.3,605.3c-2.7,2.9-7.4,3.1-10.3,0.3L-94.3,466.2c-2.9-2.7-7.7-2.7-10.7,0l-145.6,135.8
		c-2.9,2.7-7.6,2.6-10.3-0.4l-14.9-16c-2.7-2.9-2.6-7.6,0.4-10.3l170.5-159c2.9-2.7,7.7-2.7,10.7,0L79.9,579
		c2.9,2.7,3.1,7.4,0.3,10.3L65.3,605.3z"/>
	<path fill="#FFFFFF" d="M-99.7,491.3l-122.8,114.4v118.6c0,4,3.3,7.3,7.4,7.3h80.7V628.9c0-4,3.3-7.3,7.4-7.3h58.8
		c4,0,7.3,3.3,7.3,7.3v102.9H20c4,0,7.3-3.3,7.3-7.3V610L-99.7,491.3z"/>
	<path fill="#FFFFFF" d="M26.9,431.6c0-4-3.3-7.4-7.4-7.4h-44.1c-4,0-7.3,3.3-7.3,7.4v12.8l58.8,55.3L26.9,431.6L26.9,431.6z"/>
</g>
</svg>
