<?xml version="1.0" encoding="utf-8"?>
<!-- Generator: Adobe Illustrator 18.1.1, SVG Export Plug-In . SVG Version: 6.00 Build 0)  -->
<svg version="1.1" id="Layer_1" xmlns="http://www.w3.org/2000/svg" xmlns:xlink="http://www.w3.org/1999/xlink" x="0px" y="0px"
	 viewBox="0 0 1152 1152" enable-background="new 0 0 1152 1152" xml:space="preserve">
<g>
	<polygon fill="#FFFFFF" points="496.8,648.8 350.9,591.4 496.8,535.1 496.8,475.7 287.2,566.5 287.2,617 496.8,707.7 	"/>
	<path fill="#FFFFFF" d="M543.3,747.6c5.8,0,10.1-1.1,13.1-3.7c2.8-2.5,5.2-6,6.5-10.7c1.5-4.5,3.3-10.7,5.2-18.7l58.2-240.2
		c3-11.2,4.4-19.1,4.7-23.5c0-5.8-1.9-10.5-5.6-13.8c-3.7-3.2-8.8-4.9-15.9-4.9c-8.2,0-13.6,2.4-16.4,7.1
		c-2.5,4.7-5.6,13.3-8.6,26.2l-58.2,240.2c-2.8,12.7-4.3,20.6-4.3,23.9C522,741.6,529.1,747.6,543.3,747.6z"/>
	<polygon fill="#FFFFFF" points="865.3,567 655.8,476.5 655.8,534.9 802.1,591.5 655.8,649 655.8,707.9 865.3,616.7 	"/>
	<path fill="#FFFFFF" d="M1000.2,137.2H152.4c-31.8,0-57.8,26-57.8,57.8v732.1c0,31.8,26,57.8,57.8,57.8h847.8
		c32,0,57.8-26,57.8-57.8V194.8C1057.9,163,1032,137.2,1000.2,137.2z M961.6,175.8c21.3,0,38.6,17.3,38.6,38.6
		c0,21.2-17.3,38.6-38.6,38.6c-21.3,0-38.6-17.3-38.6-38.6C923.1,193.1,940.4,175.8,961.6,175.8z M855.7,175.7
		c21.3,0,38.6,17.3,38.6,38.6s-17.4,38.6-38.6,38.6s-38.6-17.3-38.6-38.6C817.2,193,834.4,175.7,855.7,175.7z M749.8,175.7
		c21.3,0,38.6,17.3,38.6,38.6s-17.4,38.6-38.6,38.6c-21.3,0-38.6-17.3-38.6-38.6S728.5,175.7,749.8,175.7z M1000.2,927.2H152.4v-636
		h847.8V927.2z"/>
</g>
</svg>
