<?xml version="1.0" encoding="utf-8"?>
<!-- Generator: Adobe Illustrator 18.1.1, SVG Export Plug-In . SVG Version: 6.00 Build 0)  -->
<svg version="1.1" id="Layer_1" xmlns="http://www.w3.org/2000/svg" xmlns:xlink="http://www.w3.org/1999/xlink" x="0px" y="0px"
	 viewBox="128.6 4.9 1024.9 1024" enable-background="new 128.6 4.9 1024.9 1024" xml:space="preserve">
<g>
	<path fill="#FFFFFF" d="M1152.8,355.6c0-0.7-0.3-1.3-0.3-2c-0.3-1.3-0.3-2.3-0.7-3.6c-0.3-0.7-0.3-1.3-0.7-2c-0.3-1-0.7-2.3-1-3.3
		c-0.3-0.7-0.7-1.3-1-2.3c-0.3-1-1-2-1.7-3c-0.3-0.7-1-1.3-1.3-2c-0.7-1-1.3-1.7-2-2.6c-0.3-0.7-1-1.3-1.7-2
		c-0.7-0.7-1.3-1.7-2.3-2.3c-0.7-0.7-1-1.3-1.7-1.7c-0.7-0.7-1.7-1.3-2.6-2c-0.7-0.7-1.3-1-2-1.7c-0.3,0-0.3-0.3-0.7-0.7l-468-312
		c-14.9-9.9-34.1-9.9-48.7,0l-468,312c-0.3,0-0.3,0.3-0.7,0.7c-0.7,0.3-1.3,1-2,1.7c-1,0.7-1.7,1.3-2.6,2c-0.7,0.7-1.3,1-1.7,1.7
		c-0.7,0.7-1.7,1.7-2.3,2.3c-0.7,0.7-1,1.3-1.7,2c-0.7,1-1.3,1.7-2,2.6c-0.3,0.7-1,1.3-1.3,2c-0.7,1-1,2-1.7,3
		c-0.3,0.7-0.7,1.3-1,2.3c-0.3,1-0.7,2-1,3.3c-0.3,0.7-0.3,1.3-0.7,2c-0.3,1.3-0.7,2.3-0.7,3.6c0,0.7-0.3,1.3-0.3,2
		c-0.3,2-0.3,3.6-0.3,5.6v312c0,2,0,4,0.3,5.6c0,0.7,0.3,1.3,0.3,2c0.3,1.3,0.3,2.3,0.7,3.6c0.3,0.7,0.3,1.3,0.7,2
		c0.3,1,0.7,2.3,1,3.3c0.3,0.7,0.7,1.3,1,2c0.3,1,1,2,1.7,3c0.3,0.7,0.7,1.3,1.3,2c0.7,1,1.3,1.7,2,2.6c0.3,0.7,1,1.3,1.7,2
		c0.7,0.7,1.3,1.7,2.3,2.3c0.7,0.7,1,1.3,1.7,1.7c0.7,0.7,1.7,1.3,2.6,2c0.7,0.7,1.3,1,2,1.7c0.3,0.3,0.3,0.3,0.7,0.7l468,312
		c7.3,5,15.9,7.3,24.5,7.3s16.9-2.3,24.5-7.3l468-312c0.3,0,0.3-0.3,0.7-0.7c0.7-0.3,1.3-1,2-1.7c1-0.7,1.7-1.3,2.6-2
		c0.7-0.7,1.3-1,1.7-1.7c0.7-0.7,1.7-1.7,2.3-2.3c0.7-0.7,1-1.3,1.7-2c0.7-1,1.3-1.7,2-2.6c0.3-0.7,1-1.3,1.3-2c0.7-1,1-2,1.7-3
		c0.3-0.7,0.7-1.3,1-2c0.3-1,0.7-2,1-3.3c0.3-0.7,0.3-1.3,0.7-2c0.3-1.3,0.7-2.3,0.7-3.6c0-0.7,0.3-1.3,0.3-2c0.3-2,0.3-4,0.3-5.6
		v-312C1153.1,359.2,1152.8,357.2,1152.8,355.6z M685.1,131.3l344.8,229.9l-154,103L685.1,336.7
		C685.1,336.7,685.1,131.3,685.1,131.3z M596.9,131.3v205.4L406.2,464.2l-154-103L596.9,131.3z M217,443.7l110,73.5l-110,73.5V443.7
		z M596.9,903.1L252.1,673.2l154-103l190.8,127.5L596.9,903.1L596.9,903.1z M641,621.2l-155.7-104l155.7-104l155.7,104L641,621.2z
		 M685.1,903.1V697.7l190.8-127.5l154,103L685.1,903.1z M1065,590.7l-110-73.5l110-73.5V590.7z"/>
</g>
</svg>
