<?xml version="1.0" encoding="utf-8"?>
<!-- Generator: Adobe Illustrator 19.1.0, SVG Export Plug-In . SVG Version: 6.00 Build 0)  -->
<svg version="1.1" id="Layer_1" xmlns="http://www.w3.org/2000/svg" xmlns:xlink="http://www.w3.org/1999/xlink" x="0px" y="0px"
	 viewBox="0 0 777 289.7" style="enable-background:new 0 0 777 289.7;" xml:space="preserve">
<style type="text/css">
	.st0{fill:#8CA461;}
	.st1{fill:#1D9F79;}
	.st2{fill:#AA482D;}
</style>
<g>
	<path class="st0" d="M632.4,5.5c-83,0-83,20-166.1,20c-83,0-83-20-166.1-20c-83,0-83.2,20-166.2,20C64.8,25.5,50-2.4,0,0.2v48
		c50-2.6,64.8,25.3,134.1,25.3c83,0,83.2-20,166.2-20c83,0,83,20,166.1,20c83,0,83-20,166.1-20c75.9,0,82.6-0.6,144.6,14.9v-48
		C715,4.9,708.3,5.5,632.4,5.5z"/>
</g>
<g>
	<path class="st1" d="M632.4,27.5c-83,0-83,20-166.1,20c-83,0-83-20-166.1-20c-83,0-83.2,20-166.2,20C64.8,47.5,50,19.6,0,22.2v26
		c50-2.6,64.8,25.3,134.1,25.3c83,0,83.2-20,166.2-20c83,0,83,20,166.1,20c83,0,83-20,166.1-20c75.9,0,82.6-0.6,144.6,14.9v-26
		C715,26.9,708.3,27.5,632.4,27.5z"/>
</g>
<path class="st2" d="M777,169.1V68.4c-62-15.5-68.7-14.9-144.6-14.9c-83,0-83,20-166.1,20c-83,0-83-20-166.1-20
	c-83,0-83.2,20-166.2,20C64.8,73.5,50,45.6,0,48.2v120.9H777z"/>
</svg>
