<?xml version="1.0" encoding="utf-8"?>
<!-- Generator: Adobe Illustrator 18.1.1, SVG Export Plug-In . SVG Version: 6.00 Build 0)  -->
<svg version="1.1" id="Layer_1" xmlns="http://www.w3.org/2000/svg" xmlns:xlink="http://www.w3.org/1999/xlink" x="0px" y="0px"
	 viewBox="0 0 1152 1152" enable-background="new 0 0 1152 1152" xml:space="preserve">
<path fill="#FFFFFF" d="M373.3,917.2l618.9-618.9l-86-86l0.3-0.3l-30.9-30.9l-0.3,0.3l-85.7-85.7l-619,619.4l0.3,0.3l-0.6-0.2
	L133.9,953L373,917.4l0,0l0,0L373.3,917.2L373.3,917.2z M930.3,298.3L372.8,855.7l-54.9-54.9l557.5-557.3L930.3,298.3z M789.7,157.7
	l54.7,54.7L287,769.8l-54.7-54.7L789.7,157.7z M217,896.5l-26.2-26.2l18-116.9L334.4,879L217,896.5z"/>
</svg>
